<svg width="269" height="102" viewBox="0 0 269 102" fill="none" xmlns="http://www.w3.org/2000/svg">
<g clip-path="url(#clip0_2_2)">
<rect width="1440" height="1024" fill="white"/>
<g filter="url(#filter0_d_2_2)">
<rect width="1477" height="102" fill="#D91212"/>
<rect x="0.5" y="0.5" width="1476" height="101" stroke="black"/>
</g>
<path d="M98.8723 43.458H104.489L110.422 57.9315H110.674L116.607 43.458H122.223V65H117.806V50.9788H117.627L112.052 64.8948H109.044L103.469 50.9262H103.29V65H98.8723V43.458ZM133.192 65.3156C131.558 65.3156 130.145 64.9684 128.953 64.2742C127.768 63.573 126.853 62.5983 126.207 61.3501C125.562 60.0948 125.24 58.6398 125.24 56.9849C125.24 55.3159 125.562 53.8573 126.207 52.6091C126.853 51.3539 127.768 50.3792 128.953 49.685C130.145 48.9837 131.558 48.6331 133.192 48.6331C134.826 48.6331 136.235 48.9837 137.42 49.685C138.612 50.3792 139.531 51.3539 140.176 52.6091C140.821 53.8573 141.144 55.3159 141.144 56.9849C141.144 58.6398 140.821 60.0948 140.176 61.3501C139.531 62.5983 138.612 63.573 137.42 64.2742C136.235 64.9684 134.826 65.3156 133.192 65.3156ZM133.213 61.8444C133.956 61.8444 134.577 61.6341 135.075 61.2133C135.572 60.7856 135.948 60.2035 136.2 59.4672C136.459 58.7309 136.589 57.893 136.589 56.9533C136.589 56.0136 136.459 55.1757 136.2 54.4394C135.948 53.7031 135.572 53.121 135.075 52.6933C134.577 52.2655 133.956 52.0517 133.213 52.0517C132.462 52.0517 131.831 52.2655 131.319 52.6933C130.815 53.121 130.432 53.7031 130.173 54.4394C129.92 55.1757 129.794 56.0136 129.794 56.9533C129.794 57.893 129.92 58.7309 130.173 59.4672C130.432 60.2035 130.815 60.7856 131.319 61.2133C131.831 61.6341 132.462 61.8444 133.213 61.8444ZM152.651 48.8435V52.2094H142.921V48.8435H152.651ZM145.13 44.9727H149.611V60.0352C149.611 60.449 149.674 60.7715 149.801 61.0029C149.927 61.2273 150.102 61.3851 150.326 61.4763C150.558 61.5674 150.824 61.613 151.126 61.613C151.336 61.613 151.547 61.5955 151.757 61.5604C151.967 61.5184 152.129 61.4868 152.241 61.4658L152.946 64.8001C152.721 64.8703 152.406 64.9509 151.999 65.0421C151.592 65.1402 151.098 65.1999 150.516 65.2209C149.436 65.263 148.489 65.1192 147.676 64.7896C146.869 64.46 146.242 63.9481 145.793 63.2539C145.344 62.5597 145.123 61.6831 145.13 60.6243V44.9727ZM162.696 65.3156C161.062 65.3156 159.649 64.9684 158.457 64.2742C157.272 63.573 156.357 62.5983 155.712 61.3501C155.067 60.0948 154.744 58.6398 154.744 56.9849C154.744 55.3159 155.067 53.8573 155.712 52.6091C156.357 51.3539 157.272 50.3792 158.457 49.685C159.649 48.9837 161.062 48.6331 162.696 48.6331C164.33 48.6331 165.74 48.9837 166.925 49.685C168.117 50.3792 169.035 51.3539 169.681 52.6091C170.326 53.8573 170.648 55.3159 170.648 56.9849C170.648 58.6398 170.326 60.0948 169.681 61.3501C169.035 62.5983 168.117 63.573 166.925 64.2742C165.74 64.9684 164.33 65.3156 162.696 65.3156ZM162.717 61.8444C163.461 61.8444 164.081 61.6341 164.579 61.2133C165.077 60.7856 165.452 60.2035 165.705 59.4672C165.964 58.7309 166.094 57.893 166.094 56.9533C166.094 56.0136 165.964 55.1757 165.705 54.4394C165.452 53.7031 165.077 53.121 164.579 52.6933C164.081 52.2655 163.461 52.0517 162.717 52.0517C161.967 52.0517 161.336 52.2655 160.824 52.6933C160.319 53.121 159.937 53.7031 159.677 54.4394C159.425 55.1757 159.299 56.0136 159.299 56.9533C159.299 57.893 159.425 58.7309 159.677 59.4672C159.937 60.2035 160.319 60.7856 160.824 61.2133C161.336 61.6341 161.967 61.8444 162.717 61.8444ZM173.562 65V48.8435H177.906V51.6625H178.074C178.369 50.6597 178.863 49.9024 179.558 49.3905C180.252 48.8715 181.051 48.6121 181.956 48.6121C182.18 48.6121 182.422 48.6261 182.682 48.6542C182.941 48.6822 183.169 48.7208 183.365 48.7699V52.7459C183.155 52.6828 182.864 52.6267 182.492 52.5776C182.121 52.5285 181.78 52.504 181.472 52.504C180.813 52.504 180.224 52.6477 179.705 52.9352C179.193 53.2157 178.786 53.6084 178.485 54.1133C178.19 54.6182 178.043 55.2002 178.043 55.8594V65H173.562ZM192.23 65.3156C190.596 65.3156 189.183 64.9684 187.991 64.2742C186.806 63.573 185.891 62.5983 185.245 61.3501C184.6 60.0948 184.278 58.6398 184.278 56.9849C184.278 55.3159 184.6 53.8573 185.245 52.6091C185.891 51.3539 186.806 50.3792 187.991 49.685C189.183 48.9837 190.596 48.6331 192.23 48.6331C193.864 48.6331 195.273 48.9837 196.458 49.685C197.65 50.3792 198.569 51.3539 199.214 52.6091C199.859 53.8573 200.182 55.3159 200.182 56.9849C200.182 58.6398 199.859 60.0948 199.214 61.3501C198.569 62.5983 197.65 63.573 196.458 64.2742C195.273 64.9684 193.864 65.3156 192.23 65.3156ZM192.251 61.8444C192.994 61.8444 193.615 61.6341 194.113 61.2133C194.61 60.7856 194.986 60.2035 195.238 59.4672C195.498 58.7309 195.627 57.893 195.627 56.9533C195.627 56.0136 195.498 55.1757 195.238 54.4394C194.986 53.7031 194.61 53.121 194.113 52.6933C193.615 52.2655 192.994 52.0517 192.251 52.0517C191.5 52.0517 190.869 52.2655 190.357 52.6933C189.853 53.121 189.47 53.7031 189.211 54.4394C188.958 55.1757 188.832 56.0136 188.832 56.9533C188.832 57.893 188.958 58.7309 189.211 59.4672C189.47 60.2035 189.853 60.7856 190.357 61.2133C190.869 61.6341 191.5 61.8444 192.251 61.8444ZM207.576 43.458V65H203.095V43.458H207.576ZM215.773 65.305C214.742 65.305 213.823 65.1262 213.017 64.7686C212.211 64.4039 211.572 63.8675 211.103 63.1593C210.64 62.444 210.408 61.5534 210.408 60.4875C210.408 59.59 210.573 58.8361 210.903 58.2261C211.232 57.616 211.681 57.1251 212.249 56.7535C212.817 56.3818 213.462 56.1013 214.185 55.912C214.914 55.7226 215.678 55.5894 216.478 55.5123C217.417 55.4141 218.175 55.3229 218.75 55.2388C219.325 55.1476 219.742 55.0144 220.001 54.8391C220.261 54.6638 220.391 54.4043 220.391 54.0607V53.9976C220.391 53.3314 220.18 52.816 219.759 52.4514C219.346 52.0867 218.757 51.9044 217.992 51.9044C217.186 51.9044 216.544 52.0832 216.067 52.4408C215.591 52.7915 215.275 53.2332 215.121 53.7662L210.976 53.4296C211.187 52.4479 211.601 51.5994 212.218 50.8841C212.835 50.1618 213.631 49.6078 214.605 49.2222C215.587 48.8295 216.723 48.6331 218.013 48.6331C218.911 48.6331 219.77 48.7383 220.59 48.9487C221.418 49.1591 222.151 49.4851 222.789 49.9269C223.434 50.3687 223.942 50.9367 224.314 51.6309C224.686 52.3181 224.871 53.1421 224.871 54.1028V65H220.622V62.7595H220.496C220.236 63.2644 219.889 63.7097 219.454 64.0954C219.02 64.4741 218.497 64.7721 217.887 64.9895C217.277 65.1999 216.572 65.305 215.773 65.305ZM217.056 62.2126C217.715 62.2126 218.297 62.0829 218.802 61.8234C219.307 61.5569 219.703 61.1993 219.991 60.7505C220.278 60.3017 220.422 59.7933 220.422 59.2253V57.5108C220.282 57.6019 220.089 57.6861 219.844 57.7632C219.605 57.8334 219.335 57.9 219.034 57.9631C218.732 58.0192 218.431 58.0718 218.129 58.1209C217.828 58.1629 217.554 58.2015 217.309 58.2366C216.783 58.3137 216.323 58.4364 215.931 58.6047C215.538 58.773 215.233 59.0009 215.016 59.2884C214.798 59.5689 214.689 59.9195 214.689 60.3403C214.689 60.9504 214.91 61.4167 215.352 61.7392C215.801 62.0548 216.369 62.2126 217.056 62.2126Z" fill="white"/>
<g filter="url(#filter1_d_2_2)">
<path fill-rule="evenodd" clip-rule="evenodd" d="M62.5208 33.5572L73.7755 41.8704C75.9446 43.4401 77.2352 45.95 77.25 48.6275V63.6764C77.1106 68.5019 73.1024 72.3102 68.2761 72.2027H45.7453C40.9107 72.3221 36.8894 68.5104 36.75 63.6764V48.6275C36.7648 45.95 38.0554 43.4401 40.2245 41.8704L51.4792 33.5572C54.7654 31.1476 59.2346 31.1476 62.5208 33.5572ZM47.4079 63.1861H66.5921C67.4751 63.1861 68.1908 62.4704 68.1908 61.5875C68.1908 60.7045 67.4751 59.9888 66.5921 59.9888H47.4079C46.525 59.9888 45.8092 60.7045 45.8092 61.5875C45.8092 62.4704 46.525 63.1861 47.4079 63.1861Z" fill="white"/>
</g>
</g>
<defs>
<filter id="filter0_d_2_2" x="-4" y="0" width="1485" height="110" filterUnits="userSpaceOnUse" color-interpolation-filters="sRGB">
<feFlood flood-opacity="0" result="BackgroundImageFix"/>
<feColorMatrix in="SourceAlpha" type="matrix" values="0 0 0 0 0 0 0 0 0 0 0 0 0 0 0 0 0 0 127 0" result="hardAlpha"/>
<feOffset dy="4"/>
<feGaussianBlur stdDeviation="2"/>
<feComposite in2="hardAlpha" operator="out"/>
<feColorMatrix type="matrix" values="0 0 0 0 0 0 0 0 0 0 0 0 0 0 0 0 0 0 0.25 0"/>
<feBlend mode="normal" in2="BackgroundImageFix" result="effect1_dropShadow_2_2"/>
<feBlend mode="normal" in="SourceGraphic" in2="effect1_dropShadow_2_2" result="shape"/>
</filter>
<filter id="filter1_d_2_2" x="26" y="25" width="62" height="62" filterUnits="userSpaceOnUse" color-interpolation-filters="sRGB">
<feFlood flood-opacity="0" result="BackgroundImageFix"/>
<feColorMatrix in="SourceAlpha" type="matrix" values="0 0 0 0 0 0 0 0 0 0 0 0 0 0 0 0 0 0 127 0" result="hardAlpha"/>
<feOffset dy="4"/>
<feGaussianBlur stdDeviation="2"/>
<feComposite in2="hardAlpha" operator="out"/>
<feColorMatrix type="matrix" values="0 0 0 0 0 0 0 0 0 0 0 0 0 0 0 0 0 0 0.25 0"/>
<feBlend mode="normal" in2="BackgroundImageFix" result="effect1_dropShadow_2_2"/>
<feBlend mode="normal" in="SourceGraphic" in2="effect1_dropShadow_2_2" result="shape"/>
</filter>
<clipPath id="clip0_2_2">
<rect width="1440" height="1024" fill="white"/>
</clipPath>
</defs>
</svg>
